<svg width="32" height="32" viewBox="0 0 32 32" fill="none" xmlns="http://www.w3.org/2000/svg">
<g id="bxl-instagram.svg">
<path id="Vector" d="M15.9983 9.83594C14.3632 9.83594 12.795 10.4855 11.6388 11.6417C10.4826 12.7979 9.83301 14.3661 9.83301 16.0013C9.83301 17.6364 10.4826 19.2046 11.6388 20.3608C12.795 21.517 14.3632 22.1666 15.9983 22.1666C17.6335 22.1666 19.2017 21.517 20.3579 20.3608C21.5141 19.2046 22.1637 17.6364 22.1637 16.0013C22.1637 14.3661 21.5141 12.7979 20.3579 11.6417C19.2017 10.4855 17.6335 9.83594 15.9983 9.83594ZM15.9983 20.0053C14.9361 20.0053 13.9173 19.5833 13.1661 18.8321C12.415 18.081 11.993 17.0622 11.993 15.9999C11.993 14.9377 12.415 13.9189 13.1661 13.1677C13.9173 12.4166 14.9361 11.9946 15.9983 11.9946C17.0606 11.9946 18.0794 12.4166 18.8305 13.1677C19.5817 13.9189 20.0037 14.9377 20.0037 15.9999C20.0037 17.0622 19.5817 18.081 18.8305 18.8321C18.0794 19.5833 17.0606 20.0053 15.9983 20.0053Z" fill="#D3E97A"/>
<path id="Vector_2" d="M22.408 11.0468C23.2019 11.0468 23.8454 10.4033 23.8454 9.60945C23.8454 8.81563 23.2019 8.17212 22.408 8.17212C21.6142 8.17212 20.9707 8.81563 20.9707 9.60945C20.9707 10.4033 21.6142 11.0468 22.408 11.0468Z" fill="#D3E97A"/>
<path id="Vector_3" d="M27.3776 8.14793C27.0689 7.35083 26.5972 6.62697 25.9927 6.02267C25.3882 5.41837 24.6641 4.94695 23.8669 4.63859C22.934 4.2884 21.9485 4.09905 20.9523 4.07859C19.6683 4.02259 19.2616 4.00659 16.0056 4.00659C12.7496 4.00659 12.3323 4.00659 11.0589 4.07859C10.0634 4.098 9.07861 4.28739 8.14693 4.63859C7.34951 4.94659 6.62528 5.41789 6.02071 6.02223C5.41613 6.62657 4.94457 7.35062 4.63626 8.14793C4.286 9.08074 4.09708 10.0664 4.0776 11.0626C4.02026 12.3453 4.00293 12.7519 4.00293 16.0093C4.00293 19.2653 4.00293 19.6799 4.0776 20.9559C4.0976 21.9533 4.2856 22.9373 4.63626 23.8719C4.94543 24.6689 5.41746 25.3927 6.02218 25.997C6.6269 26.6012 7.35101 27.0727 8.14826 27.3813C9.07817 27.7455 10.0634 27.9484 11.0616 27.9813C12.3456 28.0373 12.7523 28.0546 16.0083 28.0546C19.2643 28.0546 19.6816 28.0546 20.9549 27.9813C21.9511 27.961 22.9366 27.7721 23.8696 27.4226C24.6666 27.1135 25.3904 26.6417 25.9949 26.0372C26.5994 25.4328 27.0712 24.7089 27.3803 23.9119C27.7309 22.9786 27.9189 21.9946 27.9389 20.9973C27.9963 19.7146 28.0136 19.3079 28.0136 16.0506C28.0136 12.7933 28.0136 12.3799 27.9389 11.1039C27.9234 10.0936 27.7335 9.09359 27.3776 8.14793ZM25.7536 20.8573C25.745 21.6257 25.6047 22.3869 25.3389 23.1079C25.1387 23.6264 24.8322 24.0973 24.439 24.4902C24.0459 24.8831 23.5749 25.1893 23.0563 25.3893C22.3432 25.6539 21.5901 25.7941 20.8296 25.8039C19.5629 25.8626 19.2056 25.8773 15.9576 25.8773C12.7069 25.8773 12.3749 25.8773 11.0843 25.8039C10.3242 25.7946 9.57136 25.6543 8.85893 25.3893C8.33851 25.1906 7.8656 24.8848 7.47078 24.4919C7.07597 24.0989 6.76804 23.6274 6.56693 23.1079C6.30486 22.3947 6.16468 21.6424 6.15226 20.8826C6.09493 19.6159 6.0816 19.2586 6.0816 16.0106C6.0816 12.7613 6.0816 12.4293 6.15226 11.1373C6.16088 10.3693 6.30114 9.60848 6.56693 8.88793C6.9736 7.83592 7.80693 7.00793 8.85893 6.60526C9.57172 6.34145 10.3243 6.20121 11.0843 6.19059C12.3523 6.13326 12.7083 6.11726 15.9576 6.11726C19.2069 6.11726 19.5403 6.11726 20.8296 6.19059C21.5901 6.19974 22.3434 6.34002 23.0563 6.60526C23.5748 6.80562 24.0458 7.11219 24.4389 7.5053C24.832 7.8984 25.1386 8.36935 25.3389 8.88793C25.601 9.60119 25.7412 10.3535 25.7536 11.1133C25.8109 12.3813 25.8256 12.7373 25.8256 15.9866C25.8256 19.2346 25.8256 19.5839 25.7683 20.8586H25.7536V20.8573Z" fill="#D3E97A"/>
</g>
</svg>
