<svg width="26" height="26" viewBox="0 0 26 26" fill="none" xmlns="http://www.w3.org/2000/svg">
<g id="bxl-github.svg">
<path id="Vector" fill-rule="evenodd" clip-rule="evenodd" d="M13.0278 2.16663C7.05974 2.16663 2.22266 7.00371 2.22266 12.9718C2.22266 17.745 5.31774 21.7955 9.61207 23.2255C10.1527 23.323 10.3477 22.9905 10.3477 22.7045C10.3477 22.4477 10.339 21.7674 10.3357 20.8671C7.32949 21.5193 6.69466 19.4176 6.69466 19.4176C6.20499 18.1696 5.49541 17.837 5.49541 17.837C4.51499 17.1665 5.57016 17.1816 5.57016 17.1816C6.65566 17.2575 7.22441 18.2953 7.22441 18.2953C8.18857 19.9463 9.75507 19.4696 10.3682 19.1934C10.4668 18.4946 10.7485 18.018 11.0562 17.7482C8.65766 17.4763 6.13566 16.549 6.13566 12.4074C6.13566 11.2298 6.55707 10.2635 7.24499 9.50946C7.13557 9.23538 6.76182 8.13579 7.35224 6.64946C7.35224 6.64946 8.25899 6.35804 10.3227 7.75554C11.2041 7.51577 12.1133 7.39338 13.0267 7.39154C13.9402 7.39303 14.8494 7.51542 15.7307 7.75554C17.7956 6.35696 18.7012 6.64946 18.7012 6.64946C19.2917 8.13579 18.9212 9.23538 18.8085 9.50946C19.5018 10.2635 19.9178 11.2287 19.9178 12.4074C19.9178 16.5598 17.3937 17.472 14.9865 17.7395C15.3711 18.0732 15.7177 18.7319 15.7177 19.7394C15.7177 21.1845 15.7047 22.3502 15.7047 22.7045C15.7047 22.9937 15.8976 23.3295 16.449 23.2234C20.7412 21.7912 23.833 17.7439 23.833 12.9718C23.833 7.00371 18.9959 2.16663 13.0278 2.16663Z" fill="#D3E97A"/>
</g>
</svg>
