<svg width="26" height="26" viewBox="0 0 26 26" fill="none" xmlns="http://www.w3.org/2000/svg">
<g id="bxl-linkedin.svg">
<path id="Vector" d="M5.39865 7.7967C6.70775 7.7967 7.76899 6.73546 7.76899 5.42636C7.76899 4.11726 6.70775 3.05603 5.39865 3.05603C4.08955 3.05603 3.02832 4.11726 3.02832 5.42636C3.02832 6.73546 4.08955 7.7967 5.39865 7.7967Z" fill="#D3E97A"/>
<path id="Vector_2" d="M10.0064 9.59294V22.7435H14.0895V16.2403C14.0895 14.5243 14.4123 12.8624 16.54 12.8624C18.6384 12.8624 18.6644 14.8244 18.6644 16.3486V22.7446H22.7496V15.5329C22.7496 11.9904 21.987 9.26794 17.8465 9.26794C15.8585 9.26794 14.526 10.3589 13.9811 11.3913H13.9259V9.59294H10.0064ZM3.35254 9.59294H7.44212V22.7435H3.35254V9.59294Z" fill="#D3E97A"/>
</g>
</svg>
